<svg width="20" height="20" viewBox="0 0 20 20" fill="none" xmlns="http://www.w3.org/2000/svg">
<path opacity="0.4" d="M4.44164 16.1836C4.34997 16.1836 4.24997 16.1586 4.16664 16.1169L2.31664 15.1919C2.10831 15.0836 1.97498 14.8669 1.97498 14.6336V12.3169C1.97498 11.9752 2.25831 11.6919 2.59998 11.6919C2.94164 11.6919 3.22498 11.9752 3.22498 12.3169V14.2419L4.73331 14.9919C5.04164 15.1502 5.16664 15.5252 5.01664 15.8336C4.89164 16.0502 4.67497 16.1836 4.44164 16.1836Z" fill="#808191"/>
<path d="M10 18.9583C9.95005 18.9583 9.90005 18.9499 9.85838 18.9416C9.80838 18.9333 9.75838 18.9083 9.70838 18.8833L7.86672 17.9666C7.55839 17.8083 7.43338 17.4333 7.58338 17.1249C7.74172 16.8166 8.11672 16.6916 8.42505 16.8416L9.37505 17.3166V16.0166C9.37505 15.6749 9.65838 15.3916 10 15.3916C10.3417 15.3916 10.625 15.6749 10.625 16.0166V17.3166L11.575 16.8416C11.8834 16.6916 12.2584 16.8166 12.4167 17.1249C12.5751 17.4333 12.45 17.8083 12.1334 17.9666L10.2917 18.8833C10.2417 18.9083 10.1917 18.9249 10.1417 18.9416C10.0917 18.9499 10.05 18.9583 10 18.9583Z" fill="#808191"/>
<path opacity="0.4" d="M15.5584 16.1835C15.3334 16.1835 15.1084 16.0585 15 15.8419C14.8417 15.5335 14.9667 15.1585 15.2834 15.0002L16.7917 14.2502V12.3252C16.7917 11.9835 17.075 11.7002 17.4167 11.7002C17.7584 11.7002 18.0417 11.9835 18.0417 12.3252V14.6419C18.0417 14.8752 17.9084 15.0919 17.7 15.2002L15.85 16.1252C15.7417 16.1585 15.65 16.1835 15.5584 16.1835Z" fill="#808191"/>
<path d="M10 12.0167C9.65838 12.0167 9.37505 11.7334 9.37505 11.3917V9.4667L7.86672 8.71671C7.55839 8.55838 7.43338 8.18337 7.58338 7.87503C7.74172 7.5667 8.11672 7.4417 8.42505 7.5917L10 8.37504L11.575 7.5917C11.8834 7.4417 12.2584 7.55837 12.4167 7.87503C12.5751 8.18337 12.45 8.55838 12.1334 8.71671L10.625 9.4667V11.3917C10.625 11.7334 10.3417 12.0167 10 12.0167Z" fill="#808191"/>
<path opacity="0.4" d="M2.59167 8.30815C2.25001 8.30815 1.96667 8.02481 1.96667 7.68315V5.38315V5.37481C1.96667 5.32481 1.97501 5.27481 1.98334 5.23315C2.00001 5.16648 2.02501 5.10814 2.05834 5.04981C2.08334 5.00814 2.10834 4.97481 2.14167 4.94147C2.17501 4.90814 2.21667 4.87482 2.25834 4.84982C2.27501 4.84149 2.30001 4.82481 2.31667 4.81648L4.15834 3.89981C4.46667 3.74981 4.84167 3.86648 5.00001 4.18315C5.15834 4.49148 5.03334 4.86648 4.71668 5.02481L3.98334 5.39148L4.71668 5.75815C5.02501 5.91648 5.15001 6.29148 5.00001 6.59981C4.85001 6.90815 4.46667 7.03314 4.15834 6.88314L3.20834 6.40815V7.70815C3.21667 8.03315 2.94167 8.30815 2.59167 8.30815Z" fill="#808191"/>
<path d="M11.8499 3.21666C11.7583 3.21666 11.6583 3.19166 11.5749 3.14999L9.99995 2.36666L8.42495 3.14999C8.11661 3.30833 7.74161 3.18333 7.58328 2.86666C7.42495 2.55833 7.54995 2.18332 7.86662 2.02499L9.71662 1.1C9.89162 1.00833 10.0999 1.00833 10.2749 1.1L12.1249 2.02499C12.4333 2.18332 12.5583 2.55833 12.4083 2.86666C12.2999 3.09166 12.0833 3.21666 11.8499 3.21666Z" fill="#808191"/>
<path opacity="0.4" d="M17.4084 8.30822C17.0667 8.30822 16.7834 8.02489 16.7834 7.68322V6.38323L15.8334 6.85822C15.5251 7.01655 15.1501 6.89156 14.9917 6.57489C14.8334 6.26656 14.9584 5.89156 15.2751 5.73323L16.0084 5.36656L15.2751 4.99989C14.9667 4.84156 14.8417 4.46656 14.9917 4.15823C15.1417 3.84989 15.5251 3.72488 15.8334 3.87488L17.6751 4.79156C17.6917 4.79989 17.7167 4.80822 17.7334 4.82488C17.7834 4.84988 17.8251 4.89155 17.8667 4.93322C17.8917 4.96655 17.9167 4.99988 17.9417 5.03322C17.9751 5.09155 18.0001 5.14988 18.0167 5.21655C18.0251 5.26655 18.0334 5.31655 18.0334 5.35822V5.36656V7.66655C18.0334 8.03322 17.7501 8.30822 17.4084 8.30822Z" fill="#808191"/>
</svg>
