<svg width="20" height="20" viewBox="0 0 20 20" fill="none" xmlns="http://www.w3.org/2000/svg">
<path d="M10 16.7515C5.8645 16.7515 2.5 14.5645 2.5 11.8765C2.5 9.18846 5.8645 7.00146 10 7.00146C14.1355 7.00146 17.5 9.18846 17.5 11.8765C17.5 14.5645 14.1355 16.7515 10 16.7515ZM10 7.75146C6.27775 7.75146 3.25 9.60171 3.25 11.8765C3.25 14.1512 6.27775 16.0015 10 16.0015C13.7222 16.0015 16.75 14.1512 16.75 11.8765C16.75 9.60171 13.7222 7.75146 10 7.75146Z" fill="#808191" stroke="#808191" stroke-width="0.25"/>
<path opacity="0.4" d="M10 15.2515C8.8765 15.2515 7.72525 14.9965 6.4795 14.4722C6.4341 14.4531 6.3929 14.4252 6.35826 14.3902C6.32363 14.3552 6.29623 14.3137 6.27763 14.2681C6.24008 14.1759 6.24066 14.0727 6.27925 13.981C6.31784 13.8893 6.39127 13.8167 6.4834 13.7791C6.57553 13.7415 6.6788 13.7421 6.7705 13.7807C9.073 14.7505 10.9262 14.7505 13.2287 13.7807C13.4207 13.702 13.6397 13.7905 13.72 13.981C13.8002 14.1715 13.7102 14.3912 13.5197 14.4722C12.2747 14.9972 11.1235 15.2515 10 15.2515ZM7.375 12.2515C6.75475 12.2515 6.25 11.7467 6.25 11.1265C6.25 10.5062 6.75475 10.0015 7.375 10.0015C7.99525 10.0015 8.5 10.5062 8.5 11.1265C8.5 11.7467 7.99525 12.2515 7.375 12.2515ZM7.375 10.7515C7.32566 10.7516 7.27681 10.7614 7.23126 10.7804C7.18571 10.7993 7.14435 10.8271 7.10952 10.862C7.0747 10.897 7.04711 10.9385 7.02832 10.9841C7.00952 11.0297 6.9999 11.0786 7 11.128C7.0001 11.1773 7.00991 11.2261 7.02889 11.2717C7.04786 11.3173 7.07562 11.3586 7.11058 11.3934C7.14555 11.4283 7.18702 11.4559 7.23265 11.4746C7.27828 11.4934 7.32715 11.5031 7.3765 11.503C7.47615 11.5028 7.57165 11.463 7.64197 11.3924C7.7123 11.3218 7.7517 11.2261 7.7515 11.1265C7.7513 11.0268 7.64091 10.861 7.64091 10.861C7.64091 10.861 7.47465 10.7513 7.375 10.7515ZM12.625 12.2515C12.0047 12.2515 11.5 11.7467 11.5 11.1265C11.5 10.5062 12.0047 10.0015 12.625 10.0015C13.2452 10.0015 13.75 10.5062 13.75 11.1265C13.75 11.7467 13.2452 12.2515 12.625 12.2515ZM12.625 10.7515C12.5757 10.7516 12.5268 10.7614 12.4813 10.7804C12.4357 10.7993 12.3943 10.8271 12.3595 10.862C12.3247 10.897 12.2971 10.9385 12.2783 10.9841C12.2595 11.0297 12.2499 11.0786 12.25 11.128C12.2501 11.1773 12.2599 11.2261 12.2789 11.2717C12.2979 11.3173 12.3256 11.3586 12.3606 11.3934C12.3955 11.4283 12.437 11.4559 12.4826 11.4746C12.5283 11.4934 12.5772 11.5031 12.6265 11.503C12.7262 11.5028 12.8216 11.463 12.892 11.3924C12.9623 11.3218 13.0017 11.2261 13.0015 11.1265C13.0013 11.0268 12.9615 10.9313 12.8909 10.861C12.8203 10.7907 12.7247 10.7513 12.625 10.7515ZM15.625 7.00146C14.5907 7.00146 13.75 6.15996 13.75 5.12646C13.75 4.09296 14.5907 3.25146 15.625 3.25146C16.6592 3.25146 17.5 4.09296 17.5 5.12646C17.5 6.15996 16.6592 7.00146 15.625 7.00146ZM15.625 4.00146C15.0047 4.00146 14.5 4.50621 14.5 5.12646C14.5 5.74671 15.0047 6.25146 15.625 6.25146C15.9163 6.24083 16.192 6.11764 16.3943 5.90783C16.5966 5.69801 16.7097 5.41792 16.7097 5.12646C16.7097 4.83501 16.5966 4.55492 16.3943 4.3451C16.192 4.13528 15.9163 4.0121 15.625 4.00146ZM17.0095 11.4647C16.9277 11.4648 16.8482 11.438 16.783 11.3886C16.7179 11.3392 16.6707 11.2697 16.6487 11.191C16.4147 10.357 15.7727 9.59421 14.7925 8.98596C14.7426 8.95501 14.7006 8.91274 14.6701 8.86257C14.6395 8.8124 14.6212 8.75574 14.6166 8.69718C14.612 8.63861 14.6212 8.57979 14.6436 8.52546C14.6659 8.47113 14.7008 8.42283 14.7452 8.38446C15.2087 7.98321 15.871 7.75296 16.5632 7.75296C17.9072 7.75296 19.0007 8.59446 19.0007 9.62796C19.0007 10.5235 18.2065 11.2772 17.0702 11.461C17.0501 11.4633 17.0298 11.4645 17.0095 11.4647ZM15.673 8.67921C16.4297 9.24546 16.9682 9.91446 17.2555 10.648C17.8472 10.4665 18.25 10.066 18.25 9.62646C18.25 9.01671 17.4775 8.50146 16.5625 8.50146C16.2445 8.50146 15.9385 8.56446 15.673 8.67921ZM2.9905 11.4647C2.97042 11.4647 2.95036 11.4632 2.9305 11.4602C1.79425 11.2765 1 10.5227 1 9.62646C1 8.59296 2.0935 7.75146 3.4375 7.75146C4.12975 7.75146 4.792 7.98171 5.2555 8.38296C5.29999 8.42133 5.33481 8.46963 5.35717 8.52396C5.37952 8.57829 5.38877 8.63711 5.38417 8.69568C5.37957 8.75424 5.36125 8.8109 5.33069 8.86107C5.30012 8.91124 5.25818 8.95351 5.20825 8.98446C4.228 9.59271 3.586 10.3555 3.352 11.1895C3.32995 11.2685 3.2827 11.3381 3.21745 11.3878C3.1522 11.4374 3.07251 11.4645 2.9905 11.4647ZM3.4375 8.50146C2.5225 8.50146 1.75 9.01671 1.75 9.62646C1.75 10.0652 2.15275 10.4665 2.74375 10.648C3.03175 9.91446 3.57025 9.24546 4.32625 8.67921C4.04514 8.56025 3.74274 8.49977 3.4375 8.50146Z" fill="#808191" stroke="#808191" stroke-width="0.25"/>
<path d="M10 7.75159C9.90054 7.75159 9.80516 7.71208 9.73483 7.64175C9.66451 7.57143 9.625 7.47604 9.625 7.37659C9.625 6.25009 9.745 5.11909 10.6143 4.47784C11.3883 3.90559 12.5732 3.87859 14.2353 4.39309C14.3302 4.42243 14.4097 4.4883 14.4561 4.5762C14.5025 4.66411 14.5121 4.76686 14.4828 4.86184C14.4534 4.95682 14.3875 5.03626 14.2996 5.08267C14.2117 5.12909 14.109 5.13868 14.014 5.10934C12.6145 4.67659 11.6215 4.66684 11.059 5.08084C10.4575 5.52559 10.375 6.44734 10.375 7.37659C10.375 7.47604 10.3355 7.57143 10.2652 7.64175C10.1948 7.71208 10.0995 7.75159 10 7.75159V7.75159Z" fill="#808191"/>
</svg>
