<svg width="20" height="20" viewBox="0 0 20 20" fill="none" xmlns="http://www.w3.org/2000/svg">
<path opacity="0.4" d="M7.36033 9.04395C6.49408 9.04395 5.78955 9.83145 5.78955 10.7989C5.78955 11.7664 6.49268 12.5525 7.36033 12.5525C8.22799 12.5525 8.92971 11.7664 8.92971 10.7989C8.92971 9.83145 8.22518 9.04395 7.36033 9.04395ZM7.36033 11.9971C6.79783 11.9971 6.35205 11.4627 6.35205 10.806C6.35205 10.1493 6.80346 9.61348 7.36033 9.61348C7.91721 9.61348 8.36721 10.1479 8.36721 10.806C8.36721 11.4641 7.9158 11.99 7.36033 11.99V11.9971Z" fill="#808191" stroke="#808191" stroke-width="0.5"/>
<path d="M18.1325 9.37845C17.7477 7.87228 17.2047 6.41102 16.5125 5.01908C16.4889 4.97513 16.4545 4.93788 16.4127 4.91079C15.733 4.50633 15.0157 4.16865 14.2709 3.90251C12.89 3.40048 12.2375 3.39064 12.2108 3.39064C12.1425 3.38997 12.0764 3.41413 12.0246 3.45864C11.9729 3.50314 11.9391 3.56494 11.9295 3.63251L11.8452 4.21892C10.6163 4.09704 9.37839 4.09704 8.14953 4.21892L8.06516 3.63251C8.05561 3.56494 8.02181 3.50314 7.97006 3.45864C7.91831 3.41413 7.85215 3.38997 7.78391 3.39064C7.75719 3.39064 7.10469 3.39064 5.72375 3.89829C4.98073 4.16612 4.26537 4.5052 3.58766 4.91079C3.54576 4.93788 3.51141 4.97513 3.48781 5.01908C2.79557 6.411 2.25255 7.87226 1.86781 9.37845C1.14078 12.3147 1.00016 13.7842 1.00016 13.8447C0.996736 13.8827 1.00108 13.921 1.01293 13.9573C1.02477 13.9935 1.04387 14.027 1.06906 14.0556C1.79196 14.8201 2.66271 15.4296 3.62844 15.8472C4.51756 16.2254 5.45367 16.4818 6.41141 16.6094C6.46516 16.6143 6.5192 16.6037 6.56708 16.5788C6.61495 16.5538 6.65464 16.5156 6.68141 16.4688L7.44078 15.168C8.28621 15.312 9.14257 15.3821 10.0002 15.3775C10.8578 15.3811 11.7142 15.3101 12.5595 15.1652L13.3189 16.4688C13.3434 16.5113 13.3787 16.5466 13.4211 16.5713C13.4635 16.596 13.5117 16.6091 13.5608 16.6094H13.5889C14.5459 16.4834 15.4815 16.2289 16.3705 15.8528C17.3362 15.4353 18.2069 14.8257 18.9298 14.0613C18.955 14.0326 18.9741 13.9991 18.986 13.9629C18.9978 13.9266 19.0022 13.8883 18.9987 13.8503C19.0002 13.7842 18.8666 12.3147 18.1325 9.37845V9.37845ZM16.1553 15.3283C15.3702 15.6544 14.5494 15.8866 13.7098 16.0202L13.1361 15.0358C13.7942 14.8614 15.1639 14.4086 16.2059 13.4608C16.2336 13.436 16.2562 13.4059 16.2723 13.3724C16.2883 13.3388 16.2977 13.3024 16.2997 13.2653C16.3017 13.2281 16.2964 13.1909 16.2841 13.1558C16.2717 13.1207 16.2526 13.0884 16.2277 13.0607C16.2029 13.033 16.1728 13.0105 16.1393 12.9944C16.1057 12.9783 16.0694 12.969 16.0322 12.967C15.9951 12.9649 15.9579 12.9702 15.9228 12.9826C15.8877 12.9949 15.8554 13.0141 15.8277 13.0389C14.562 14.1963 12.6692 14.5633 12.6495 14.5675H12.6411C11.771 14.736 10.8864 14.8189 10.0002 14.815C9.11415 14.8217 8.22963 14.7416 7.35922 14.576H7.35078C7.33109 14.576 5.44531 14.2047 4.17266 13.0474C4.11671 12.9972 4.04313 12.9713 3.9681 12.9754C3.89307 12.9795 3.82274 13.0132 3.77258 13.0692C3.72242 13.1251 3.69653 13.1987 3.70062 13.2737C3.70471 13.3487 3.73843 13.4191 3.79438 13.4692C4.83641 14.417 6.20609 14.8755 6.86422 15.0442L6.29047 16.0286C5.45072 15.896 4.62977 15.6637 3.845 15.3367C2.99571 14.9622 2.22508 14.4302 1.57391 13.7688C1.62031 13.3595 1.81016 11.9308 2.41766 9.51626C2.78742 8.07858 3.30192 6.68207 3.95328 5.34814C4.58145 4.98552 5.24023 4.67872 5.92203 4.43126C6.44886 4.22883 6.99429 4.07858 7.55047 3.98267L7.59969 4.31876C7.03719 4.45939 5.65203 4.86158 4.55516 5.65892C4.52533 5.68071 4.50009 5.70816 4.48088 5.73971C4.46166 5.77126 4.44885 5.80628 4.44317 5.84277C4.4317 5.91648 4.44998 5.99173 4.49398 6.05197C4.53799 6.1122 4.60413 6.15248 4.67784 6.16396C4.71434 6.16964 4.7516 6.16807 4.78749 6.15935C4.82338 6.15063 4.85721 6.13493 4.88703 6.11314C6.12734 5.21173 7.84016 4.83908 7.96109 4.81236C8.63772 4.73129 9.31869 4.69184 10.0002 4.69423C10.6821 4.69151 11.3636 4.73096 12.0406 4.81236C12.1686 4.83908 13.8688 5.21033 15.1147 6.11314C15.1749 6.15715 15.2502 6.17543 15.3239 6.16396C15.3976 6.15248 15.4637 6.1122 15.5077 6.05197C15.5517 5.99173 15.57 5.91648 15.5586 5.84277C15.5471 5.76906 15.5068 5.70293 15.4466 5.65892C14.3497 4.86158 12.9702 4.46079 12.402 4.31876L12.4513 3.98267C13.0069 4.07902 13.5518 4.22926 14.0783 4.43126C14.7601 4.67872 15.4189 4.98552 16.047 5.34814C16.7023 6.68164 17.2205 8.07816 17.5939 9.51626C18.1972 11.9308 18.387 13.3595 18.4377 13.7688C17.7824 14.4283 17.0079 14.9576 16.1553 15.3283V15.3283Z" fill="#808191" stroke="#808191" stroke-width="0.5"/>
<path opacity="0.4" d="M12.6397 9.04395C11.7748 9.04395 11.0703 9.83145 11.0703 10.7989C11.0703 11.7664 11.7734 12.5525 12.6397 12.5525C13.5059 12.5525 14.2105 11.7664 14.2105 10.7989C14.2105 9.83145 13.5059 9.04395 12.6397 9.04395ZM12.6397 11.9971C12.0772 11.9971 11.6328 11.4627 11.6328 10.806C11.6328 10.1493 12.0842 9.61348 12.6397 9.61348C13.1952 9.61348 13.648 10.1479 13.648 10.806C13.648 11.4641 13.1966 11.99 12.6397 11.99V11.9971Z" fill="#808191" stroke="#808191" stroke-width="0.5"/>
</svg>
