<svg width="20" height="20" viewBox="0 0 20 20" fill="none" xmlns="http://www.w3.org/2000/svg" class="hover:text-red-600">
<path d="M15.4167 10.5415V13.6248C15.4167 16.2248 12.9917 18.3332 10 18.3332C7.00837 18.3332 4.58337 16.2248 4.58337 13.6248V10.5415C4.58337 13.1415 7.00837 14.9998 10 14.9998C12.9917 14.9998 15.4167 13.1415 15.4167 10.5415Z" fill="#808191"/>
<path opacity="0.4" d="M15.4167 6.375V10.5417C15.4167 13.1417 12.9917 15 10 15C7.00837 15 4.58337 13.1417 4.58337 10.5417V6.375C4.58337 7.13333 4.79171 7.83333 5.15838 8.43333C6.05004 9.9 7.88337 10.8333 10 10.8333C12.1167 10.8333 13.95 9.9 14.8417 8.43333C15.2084 7.83333 15.4167 7.13333 15.4167 6.375Z" fill="#808191"/>
<path d="M15.4167 6.37484C15.4167 7.13317 15.2084 7.83317 14.8417 8.43317C13.95 9.89984 12.1167 10.8332 10 10.8332C7.88337 10.8332 6.05004 9.89984 5.15838 8.43317C4.79171 7.83317 4.58337 7.13317 4.58337 6.37484C4.58337 3.77484 7.00837 1.6665 10 1.6665C11.5 1.6665 12.85 2.1915 13.8334 3.0415C14.8084 3.89984 15.4167 5.07484 15.4167 6.37484Z" fill="#808191"/>
</svg>
