<svg width="20" height="20" viewBox="0 0 20 20" fill="none" xmlns="http://www.w3.org/2000/svg">
<path d="M7.10884 17.0865C5.49634 17.0865 3.63034 16.6725 1.56634 15.5138C1.41034 15.426 1.33834 15.2408 1.39384 15.0713C1.44934 14.9018 1.61659 14.79 1.79359 14.8148C3.15409 14.9708 4.63984 14.652 5.74984 14.0003C4.47859 13.7018 3.45109 12.876 2.90884 11.6768C2.87905 11.6111 2.86887 11.5382 2.87951 11.4669C2.89015 11.3956 2.92117 11.3289 2.96884 11.2748C3.06634 11.1638 3.21934 11.121 3.36034 11.1638C3.52384 11.214 3.68659 11.2485 3.84334 11.2673C2.87809 10.6913 1.84459 9.58877 1.84459 7.93652C1.8446 7.86576 1.86464 7.79644 1.90239 7.73658C1.94013 7.67672 1.99405 7.62877 2.0579 7.59825C2.12175 7.56774 2.19293 7.55592 2.26321 7.56415C2.3335 7.57238 2.40002 7.60033 2.45509 7.64477C2.57509 7.74227 2.70334 7.82402 2.83609 7.88852C2.53471 7.47952 2.31356 7.01711 2.18434 6.52577C1.93534 5.56427 2.08009 4.58927 2.60209 3.70877C2.63315 3.65668 2.67636 3.61289 2.72803 3.58113C2.7797 3.54936 2.83828 3.53058 2.89878 3.52638C2.95929 3.52218 3.01991 3.53269 3.07547 3.557C3.13103 3.58132 3.17987 3.61873 3.21784 3.66602C4.32184 5.04527 6.28384 6.71177 9.43834 7.01552C9.37984 6.01727 9.67984 4.38152 11.0583 3.57677C12.7541 2.58677 14.3853 2.71427 15.7871 3.94202C16.4081 3.80402 17.3883 3.37802 17.5916 3.23627C17.6546 3.19217 17.7296 3.1685 17.8065 3.16846C17.8834 3.16843 17.9584 3.19203 18.0214 3.23606C18.0845 3.2801 18.1324 3.34245 18.1589 3.41466C18.1853 3.48688 18.1888 3.56546 18.1691 3.63977C18.0753 3.99302 17.8631 4.38602 17.5991 4.73702C17.8083 4.67477 17.9846 4.61177 18.0783 4.56377C18.1515 4.52611 18.2349 4.51354 18.3159 4.52798C18.3969 4.54243 18.4708 4.58309 18.5264 4.6437C18.582 4.70432 18.6161 4.78153 18.6235 4.86345C18.6309 4.94536 18.6112 5.02743 18.5673 5.09702C18.1263 5.79452 17.4131 6.44402 16.9368 6.79652C17.1941 9.96527 15.3423 13.506 12.3701 15.4793C11.2676 16.2105 9.45559 17.0865 7.10884 17.0865V17.0865ZM3.36259 15.5543C7.37584 17.2005 10.4148 15.8753 11.9546 14.853C14.7716 12.9825 16.5048 9.61202 16.1696 6.65627C16.1616 6.5874 16.173 6.51767 16.2024 6.45488C16.2318 6.3921 16.2781 6.33874 16.3361 6.30077C16.5378 6.16802 16.8461 5.92427 17.1566 5.62202C16.8513 5.68802 16.5551 5.73227 16.3398 5.73302C16.1328 5.70827 16.0046 5.60627 15.9708 5.42927C15.9541 5.34358 15.9678 5.25472 16.0097 5.17813C16.0517 5.10154 16.1191 5.04206 16.2003 5.01002C16.4126 4.92527 16.6991 4.66952 16.9466 4.35602C16.5221 4.52027 16.0631 4.66577 15.7256 4.71452C15.6699 4.72259 15.6131 4.71794 15.5594 4.70093C15.5058 4.68391 15.4567 4.65497 15.4158 4.61627C14.2323 3.50477 12.8943 3.37277 11.4363 4.22327C10.1276 4.98827 10.0983 6.77102 10.2363 7.33427C10.2505 7.39122 10.2512 7.4507 10.2381 7.50793C10.2251 7.56516 10.1988 7.61852 10.1614 7.66371C10.1239 7.7089 10.0764 7.74464 10.0226 7.76806C9.96875 7.79148 9.91018 7.80192 9.85159 7.79852C6.49834 7.62152 4.32034 6.03902 3.01009 4.57952C2.79276 5.14047 2.75812 5.75572 2.91109 6.33752C3.13159 7.18727 3.68659 7.83902 4.10809 8.08502C4.17376 8.12333 4.22623 8.18069 4.25855 8.2495C4.29088 8.31832 4.30152 8.39533 4.28907 8.47033C4.27663 8.54533 4.24168 8.61477 4.18887 8.66946C4.13605 8.72414 4.06786 8.76148 3.99334 8.77652C3.55113 8.85806 3.09477 8.80987 2.67934 8.63777C3.07009 10.2015 4.69609 10.938 5.15359 10.989C5.22632 10.9974 5.29503 11.0268 5.35129 11.0736C5.40754 11.1205 5.44888 11.1827 5.47023 11.2527C5.49158 11.3228 5.49201 11.3975 5.47147 11.4678C5.45092 11.538 5.4103 11.6008 5.35459 11.6483C5.02684 11.925 4.53634 12.0585 3.98359 12.0308C4.61059 12.8663 5.58259 13.3463 6.74434 13.3718C6.81951 13.3734 6.89246 13.3976 6.9537 13.4413C7.01494 13.4849 7.06165 13.5459 7.08777 13.6164C7.11389 13.6869 7.11821 13.7637 7.10016 13.8367C7.08212 13.9097 7.04255 13.9755 6.98659 14.0258C6.06559 14.8508 4.74409 15.393 3.36259 15.5543V15.5543Z" fill="url(#paint0_linear_1583_24389)" stroke="url(#paint1_linear_1583_24389)" stroke-width="0.25"/>
<defs>
<linearGradient id="paint0_linear_1583_24389" x1="1.37524" y1="2.91748" x2="20.0767" y2="5.20185" gradientUnits="userSpaceOnUse">
<stop stop-color="#087EE1"/>
<stop offset="1" stop-color="#04C29C"/>
</linearGradient>
<linearGradient id="paint1_linear_1583_24389" x1="1.37524" y1="2.91748" x2="20.0767" y2="5.20185" gradientUnits="userSpaceOnUse">
<stop stop-color="#087EE1"/>
<stop offset="1" stop-color="#04C29C"/>
</linearGradient>
</defs>
</svg>
