<svg width="20" height="20" viewBox="0 0 20 20" fill="none" xmlns="http://www.w3.org/2000/svg">
<path d="M17.4589 3.07365C17.1294 2.80041 16.6765 2.73009 16.2797 2.89054L2.84192 8.31559C2.25081 8.55889 1.96888 9.23533 2.21218 9.82639C2.33802 10.1321 2.58851 10.3693 2.90052 10.4784L5.79944 11.4862L7.37049 16.6806C7.37365 16.6912 7.38335 16.6976 7.38743 16.7078C7.40368 16.7492 7.42743 16.7873 7.45742 16.8202C7.46859 16.8334 7.48076 16.8458 7.49376 16.8573C7.5329 16.8898 7.57836 16.9138 7.62725 16.9278C7.63471 16.93 7.6397 16.9367 7.6473 16.9384L7.65169 16.9382L7.65389 16.9391C7.67893 16.9447 7.70447 16.9474 7.73006 16.9472C7.76352 16.946 7.79671 16.9402 7.82857 16.93C7.83475 16.9283 7.84098 16.9288 7.84702 16.9268C7.90145 16.9076 7.95061 16.876 7.99067 16.8346C7.99534 16.8299 8.00243 16.8291 8.00692 16.8241L10.2672 14.3302L13.5645 16.8835C13.7649 17.0401 14.0119 17.1252 14.2662 17.1252C14.8162 17.1251 15.291 16.7398 15.4044 16.2016L17.8514 4.18839C17.9362 3.77283 17.7853 3.34437 17.4589 3.07365ZM8.1908 12.4714L7.66039 15.0489L6.55425 11.3906L12.0404 8.53381L8.29261 12.2817C8.24079 12.3335 8.2054 12.3995 8.1908 12.4714ZM14.6698 16.0507C14.6411 16.1888 14.5425 16.302 14.4098 16.3495C14.2801 16.3994 14.1336 16.3772 14.0245 16.2909L10.4518 13.5246C10.2971 13.4048 10.0763 13.4243 9.94495 13.5693L8.37322 15.3034L8.90271 12.7328L14.2941 7.34074C14.4406 7.19448 14.4408 6.95718 14.2946 6.81069C14.1789 6.69474 14.0013 6.66737 13.8561 6.74308L6.08358 10.7906L3.14588 9.76945C2.98575 9.71676 2.87685 9.56812 2.87488 9.39957C2.86715 9.22983 2.96763 9.07378 3.12537 9.01066L16.5609 3.58634C16.7013 3.52679 16.8632 3.55173 16.9791 3.65079C17.0945 3.7439 17.1475 3.8941 17.1161 4.03898L14.6698 16.0507Z" fill="url(#paint0_linear_1583_24392)" stroke="url(#paint1_linear_1583_24392)" stroke-width="0.25"/>
<defs>
<linearGradient id="paint0_linear_1583_24392" x1="2.12476" y1="2.80566" x2="19.2464" y2="4.69515" gradientUnits="userSpaceOnUse">
<stop stop-color="#087EE1"/>
<stop offset="1" stop-color="#04C29C"/>
</linearGradient>
<linearGradient id="paint1_linear_1583_24392" x1="2.12476" y1="2.80566" x2="19.2464" y2="4.69515" gradientUnits="userSpaceOnUse">
<stop stop-color="#087EE1"/>
<stop offset="1" stop-color="#04C29C"/>
</linearGradient>
</defs>
</svg>
