<svg width="20" height="20" viewBox="0 0 24 24" fill="none" xmlns="http://www.w3.org/2000/svg"><path d="M17.25 17.5H6.75C5.75584 17.5013 4.80279 17.8968 4.09981 18.5998C3.39684 19.3028 3.00132 20.2558 3 21.25V23.25C3 23.664 3.336 24 3.75 24H20.25C20.4489 24 20.6397 23.921 20.7803 23.7803C20.921 23.6397 21 23.4489 21 23.25V21.25C20.9987 20.2558 20.6032 19.3028 19.9002 18.5998C19.1972 17.8968 18.2442 17.5013 17.25 17.5Z" fill="#808191"></path><path d="M12 0C6.49 0 2 4.48 2 9.99C2 12.45 2.89 14.75 4.45 16.54C5.16332 16.181 5.95146 15.996 6.75 16H17.25C18.08 16 18.86 16.19 19.55 16.54C21.1339 14.726 22.0046 12.3982 22 9.99C22 4.48 17.51 0 12 0Z" fill="#CCCDD3"></path><g clip-path="url(#clip0_8_122)"><path d="M7.5 9C7.69891 9 7.88968 8.92098 8.03033 8.78033C8.17098 8.63968 8.25 8.44891 8.25 8.25C8.25 8.25 8.25 8.225 8.25 8.21L10.46 6H10.5C10.5943 5.99924 10.6876 5.98058 10.775 5.945L12.775 6.945C12.8253 7.11754 12.9358 7.2663 13.0865 7.36419C13.2372 7.46208 13.4181 7.5026 13.5962 7.47837C13.7742 7.45414 13.9377 7.36678 14.0568 7.23218C14.1759 7.09758 14.2427 6.9247 14.245 6.745C14.247 6.71337 14.247 6.68163 14.245 6.65L16.5 4C16.6483 4 16.7933 3.95601 16.9167 3.8736C17.04 3.79119 17.1361 3.67406 17.1929 3.53701C17.2497 3.39997 17.2645 3.24917 17.2356 3.10368C17.2066 2.9582 17.1352 2.82456 17.0303 2.71967C16.9254 2.61478 16.7918 2.54335 16.6463 2.51441C16.5008 2.48547 16.35 2.50032 16.213 2.55709C16.0759 2.61386 15.9588 2.70999 15.8764 2.83332C15.794 2.95666 15.75 3.10166 15.75 3.25C15.748 3.28163 15.748 3.31337 15.75 3.345L13.5 6C13.4127 6.0016 13.3264 6.01852 13.245 6.05L11.245 5.05C11.1947 4.87746 11.0842 4.7287 10.9335 4.63081C10.7828 4.53292 10.6019 4.4924 10.4238 4.51663C10.2458 4.54086 10.0823 4.62822 9.96322 4.76282C9.84414 4.89742 9.77734 5.0703 9.775 5.25C9.775 5.25 9.775 5.275 9.775 5.29L7.54 7.5H7.5C7.30109 7.5 7.11032 7.57902 6.96967 7.71967C6.82902 7.86032 6.75 8.05109 6.75 8.25C6.75 8.44891 6.82902 8.63968 6.96967 8.78033C7.11032 8.92098 7.30109 9 7.5 9Z" fill="#808191"></path><path d="M17.75 12.5H17.5V5.75C17.5 5.6837 17.4737 5.62011 17.4268 5.57322C17.3799 5.52634 17.3163 5.5 17.25 5.5H15.75C15.6837 5.5 15.6201 5.52634 15.5732 5.57322C15.5263 5.62011 15.5 5.6837 15.5 5.75V12.5H14.5V8.75C14.5 8.6837 14.4737 8.62011 14.4268 8.57322C14.3799 8.52634 14.3163 8.5 14.25 8.5H12.75C12.6837 8.5 12.6201 8.52634 12.5732 8.57322C12.5263 8.62011 12.5 8.6837 12.5 8.75V12.5H11.5V7.25C11.5 7.1837 11.4737 7.12011 11.4268 7.07322C11.3799 7.02634 11.3163 7 11.25 7H9.75C9.6837 7 9.62011 7.02634 9.57322 7.07322C9.52634 7.12011 9.5 7.1837 9.5 7.25V12.5H8.5V10.25C8.5 10.1837 8.47366 10.1201 8.42678 10.0732C8.37989 10.0263 8.3163 10 8.25 10H6.75C6.6837 10 6.62011 10.0263 6.57322 10.0732C6.52634 10.1201 6.5 10.1837 6.5 10.25V12.5H6.25C6.1837 12.5 6.12011 12.5263 6.07322 12.5732C6.02634 12.6201 6 12.6837 6 12.75V13.25C6 13.3163 6.02634 13.3799 6.07322 13.4268C6.12011 13.4737 6.1837 13.5 6.25 13.5H17.75C17.8163 13.5 17.8799 13.4737 17.9268 13.4268C17.9737 13.3799 18 13.3163 18 13.25V12.75C18 12.6837 17.9737 12.6201 17.9268 12.5732C17.8799 12.5263 17.8163 12.5 17.75 12.5Z" fill="#808191"></path></g><defs><clipPath id="clip0_8_122"><rect width="12" height="12" fill="white" transform="translate(6 2)"></rect></clipPath></defs></svg>