<svg width="44" height="44" viewBox="0 0 44 44" fill="none" xmlns="http://www.w3.org/2000/svg">
<circle cx="22" cy="22" r="21.75" stroke="white" stroke-opacity="0.56" stroke-width="0.5"/>
<g clip-path="url(#clip0_252_30433)">
<path fill-rule="evenodd" clip-rule="evenodd" d="M26.8433 16.5478C25.6043 15.3661 23.9508 14.7223 22.24 14.7488C19.1094 14.7488 16.4505 16.8609 15.5025 19.7049C14.9999 21.1952 14.9999 22.8091 15.5025 24.2994H15.5069C16.4593 27.139 19.1138 29.2511 22.2444 29.2511C23.8604 29.2511 25.2478 28.8378 26.323 28.1077V28.1047C27.5885 27.2669 28.4528 25.9486 28.7217 24.4582H22.24V19.8372H33.5588C33.6999 20.6397 33.766 21.4599 33.766 22.2756C33.766 25.9254 32.4616 29.0112 30.1921 31.1012L30.1944 31.103C28.2058 32.9373 25.4764 34 22.24 34C17.7028 34 13.5536 31.4426 11.5165 27.3904C9.81449 23.9996 9.81449 20.0048 11.5165 16.614C13.5536 12.5574 17.7028 9.99995 22.24 9.99995C25.2207 9.96468 28.1 11.0847 30.2694 13.1218L26.8433 16.5478Z" fill="white"/>
<g clip-path="url(#clip1_252_30433)">
<path d="M33.766 22.2764C33.766 21.4606 33.6999 20.6405 33.5588 19.838H22.24V24.459H28.7217C28.4528 25.9493 27.5885 27.2677 26.323 28.1055V31.1039H30.19C32.4608 29.0138 33.766 25.9273 33.766 22.2764Z" fill="#4285F4"/>
<path d="M22.2401 34.0008C25.4766 34.0008 28.2059 32.9382 30.1945 31.1039L26.3276 28.1055C25.2517 28.8375 23.8627 29.252 22.2445 29.252C19.1139 29.252 16.4595 27.1399 15.507 24.3003H11.5166V27.3912C13.5537 31.4434 17.7029 34.0008 22.2401 34.0008Z" fill="#34A853"/>
<path d="M15.5025 24.3003C14.9999 22.81 14.9999 21.1962 15.5025 19.7058V16.6149H11.5165C9.81449 20.0056 9.81449 24.0005 11.5165 27.3913L15.5025 24.3003Z" fill="#FBBC04"/>
<path d="M22.2401 14.7497C23.9509 14.7232 25.6044 15.367 26.8434 16.5487L30.2695 13.1226C28.1001 11.0855 25.2208 9.96553 22.2401 10.0008C17.7029 10.0008 13.5537 12.5582 11.5166 16.6148L15.5026 19.7058C16.4506 16.8617 19.1095 14.7497 22.2401 14.7497Z" fill="#EA4335"/>
</g>
</g>
<defs>
<clipPath id="clip0_252_30433">
<rect width="24" height="24" fill="white" transform="translate(10 10)"/>
</clipPath>
<clipPath id="clip1_252_30433">
<rect width="24" height="24" fill="white" transform="translate(10 10)"/>
</clipPath>
</defs>
</svg>
