<svg width="24" height="24" viewBox="0 0 24 24" fill="none" xmlns="http://www.w3.org/2000/svg">
<path d="M0 12C0 5.37258 5.37258 0 12 0C18.6274 0 24 5.37258 24 12C24 18.6274 18.6274 24 12 24C5.37258 24 0 18.6274 0 12Z" fill="#8A5634"/>
<path d="M20.0105 3.59998L12.8018 9.29111L14.1423 5.93714L20.0105 3.59998Z" fill="#E17726"/>
<path d="M4.00684 3.60681L9.8593 5.9377L11.1322 9.33565L4.00684 3.60681Z" fill="#E27625"/>
<path d="M17.1093 15.7031L20.2955 15.7678L19.182 19.8039L15.2942 18.6618L17.1093 15.7031Z" fill="#E27625"/>
<path d="M6.89049 15.7031L8.69893 18.6618L4.81767 19.804L3.71094 15.7678L6.89049 15.7031Z" fill="#E27625"/>
<path d="M10.9586 8.47009L11.0888 12.9572L7.19263 12.768L8.30087 10.9841L8.3149 10.9669L10.9586 8.47009Z" fill="#E27625"/>
<path d="M13.0015 8.41992L15.6855 10.967L15.6994 10.9841L16.8076 12.768L12.9124 12.9571L13.0015 8.41992Z" fill="#E27625"/>
<path d="M8.81309 15.7164L10.9405 17.485L8.46924 18.7581L8.81309 15.7164Z" fill="#E27625"/>
<path d="M15.1879 15.7161L15.5247 18.758L13.0603 17.4848L15.1879 15.7161Z" fill="#E27625"/>
<path d="M13.1143 17.3185L15.615 18.6105L13.2888 19.7901L13.313 19.0104L13.1143 17.3185Z" fill="#D5BFB2"/>
<path d="M10.8848 17.3191L10.6939 18.9977L10.7096 19.7892L8.37793 18.6105L10.8848 17.3191Z" fill="#D5BFB2"/>
<path d="M10.163 13.5427L10.8165 15.0081L8.59155 14.3127L10.163 13.5427Z" fill="#233447"/>
<path d="M13.8374 13.5427L15.4162 14.3125L13.1841 15.0077L13.8374 13.5427Z" fill="#233447"/>
<path d="M8.98303 15.7014L8.62338 18.8551L6.6958 15.7704L8.98303 15.7014Z" fill="#CC6228"/>
<path d="M15.0173 15.7014L17.3046 15.7704L15.3698 18.8552L15.0173 15.7014Z" fill="#CC6228"/>
<path d="M16.8637 12.5897L15.1991 14.3998L13.9157 13.774L13.3013 15.1523L12.8984 12.7822L16.8637 12.5897Z" fill="#CC6228"/>
<path d="M7.13574 12.5897L11.1017 12.7822L10.6989 15.1523L10.0843 13.7742L8.80767 14.3999L7.13574 12.5897Z" fill="#CC6228"/>
<path d="M7.02319 12.2179L8.90651 14.2569L8.97178 16.2699L7.02319 12.2179Z" fill="#E27525"/>
<path d="M16.9784 12.2141L15.0264 16.2734L15.0999 14.2568L16.9784 12.2141Z" fill="#E27525"/>
<path d="M11.0098 12.3423L11.0856 12.8513L11.2729 14.1194L11.1525 18.0143L10.5832 14.8855L10.583 14.8532L11.0098 12.3423Z" fill="#E27525"/>
<path d="M12.9895 12.3354L13.4174 14.8534L13.4172 14.8857L12.8465 18.0223L12.8239 17.2378L12.7349 14.0966L12.9895 12.3354Z" fill="#E27525"/>
<path d="M15.2675 14.1764L15.2038 15.9253L13.2171 17.5769L12.8154 17.2741L13.2656 14.8L15.2675 14.1764Z" fill="#F5841F"/>
<path d="M8.73999 14.1764L10.735 14.8L11.1851 17.2741L10.7835 17.5769L8.79669 15.9252L8.73999 14.1764Z" fill="#F5841F"/>
<path d="M7.9978 18.2239L10.5396 19.5089L10.5288 18.9602L10.7415 18.761H13.2571L13.4775 18.9595L13.4613 19.5078L15.9869 18.2271L14.7579 19.3107L13.2718 20.3998H10.7211L9.23597 19.3063L7.9978 18.2239Z" fill="#C0AC9D"/>
<path d="M12.9321 17.1476L13.2915 17.4184L13.5021 19.2113L13.1973 18.9367H10.8036L10.5046 19.2168L10.7083 17.4186L11.0678 17.1476H12.9321Z" fill="#161616"/>
<path d="M19.5346 3.7572L20.3999 6.527L19.8595 9.32752L20.2443 9.64427L19.7236 10.0682L20.1149 10.3906L19.5967 10.8942L19.9149 11.14L19.0706 12.1921L15.6076 11.1163L15.5775 11.0991L13.082 8.85301L19.5346 3.7572Z" fill="#763E1A"/>
<path d="M4.46542 3.7572L10.918 8.853L8.42248 11.0991L8.39247 11.1163L4.92944 12.1921L4.08514 11.14L4.40303 10.8944L3.88507 10.3906L4.27567 10.0685L3.74718 9.64341L4.14651 9.32647L3.6001 6.5271L4.46542 3.7572Z" fill="#763E1A"/>
<path d="M15.4386 10.8811L19.1079 12.0209L20.3 15.941L17.155 15.941L14.988 15.9702L16.564 12.6927L15.4386 10.8811Z" fill="#F5841F"/>
<path d="M8.56226 10.8811L7.43672 12.6927L9.01285 15.9702L6.84692 15.941H3.70752L4.89292 12.021L8.56226 10.8811Z" fill="#F5841F"/>
<path d="M14.3222 5.91833L13.2958 8.87587L13.078 12.8712L12.9947 14.1235L12.9881 17.3225H11.012L11.0056 14.1295L10.922 12.8701L10.7041 8.87587L9.67798 5.91833H14.3222Z" fill="#F5841F"/>
</svg>
