<svg width="24" height="24" viewBox="0 0 24 24" fill="none" xmlns="http://www.w3.org/2000/svg">
<rect width="24" height="24" rx="12" fill="#3A5B82"/>
<path d="M6.18848 13.2552L6.62517 13.0805L12.0044 10.9104L17.8203 13.2552L15.6369 17.4391L10.2973 18.138L6.2778 14.1196L6.18848 13.2552Z" fill="#133444"/>
<path d="M16.6196 10.6803C15.6569 9.60444 14.2972 8.91478 12.8085 8.73087L12.7092 8.72168C12.2428 8.6665 11.7763 8.6665 11.3098 8.72168L11.2106 8.73087C9.72187 8.91478 8.36218 9.61363 7.39947 10.6803L7.16128 11.0481L6.75436 11.6642L6.45662 12.1148C6.45662 12.124 6.44669 12.1424 6.43677 12.1516V12.1608L7.08188 12.5194L11.2007 14.7814L11.9946 15.2136V9.81593L11.2007 10.147V9.33777L11.9946 9.00674L12.7886 9.33777L16.8379 11.0481L16.6196 10.6803Z" fill="#C42370"/>
<path d="M17.9991 14.5977C17.9891 16.3724 17.1257 18.0459 15.6469 19.1678C15.0812 19.6 14.446 19.9218 13.7513 20.1425C13.1855 20.3172 12.6 20.4 12.0045 20.4C8.68962 20.4 6 17.6689 6 14.5977C6 14.1471 6.05955 13.6965 6.17865 13.2551L11.9946 16.4459L17.8105 13.2551C17.9395 13.6965 18.009 14.1471 17.9991 14.5977Z" fill="#1C4D6B"/>
<path d="M11.3097 8.72188L12.0044 9.00694L11.2104 9.34717V8.6759L11.3097 8.72188Z" fill="black"/>
<path d="M11.2104 10.1564L12.0044 9.81616V15.2231L11.2104 14.7817V10.1564Z" fill="black"/>
<path d="M12.0044 9.81616V15.2231L17.5821 12.1702L12.0044 9.81616Z" fill="#1D4259"/>
<path d="M12.0044 3.59998V9.81607L17.5821 12.1701L12.0044 3.59998Z" fill="#4B6B9A"/>
<path d="M12.0045 9.81597V15.2137L11.2105 14.7815L6.43668 12.17H6.42676H6.43668C6.43668 12.1608 6.44661 12.1424 6.45653 12.1332L7.15127 11.0574L11.2006 9.3562V10.1562L12.0045 9.81597Z" fill="#343535"/>
<path d="M12.0046 9.81616V15.2231L11.2106 14.7817L6.43677 12.1702L6.44669 12.161L11.2106 10.1564L12.0046 9.81616Z" fill="#3E5578"/>
<path d="M12.0046 3.59998V9.81607L6.43677 12.1701L12.0046 3.59998Z" fill="#6DB2D8"/>
<path d="M9.75146 19.9585C9.83086 19.9953 9.92019 20.0229 9.99958 20.0505C9.92019 20.0229 9.84079 19.9861 9.75146 19.9585Z" fill="#335F8A"/>
<path d="M9.99976 20.0504C10.0792 20.078 10.1685 20.1148 10.2578 20.1332C10.1784 20.1148 10.0891 20.0872 9.99976 20.0504Z" fill="#335F8A"/>
<path d="M10.4861 20.1975C10.5556 20.2159 10.6151 20.2343 10.6846 20.2435C10.6151 20.2343 10.5456 20.2159 10.4861 20.1975Z" fill="#335F8A"/>
<path d="M6.18841 13.255L12.0043 16.4458C11.9249 16.9332 11.786 17.4021 11.5875 17.8619C11.121 18.9102 10.1881 20.0136 8.36194 19.1676C6.88315 18.0458 6.01969 16.3722 6.00977 14.5975C6.00977 14.147 6.06931 13.6964 6.18841 13.255Z" fill="#6DB2D8"/>
<path d="M15.6469 19.1678L15.627 19.177C15.5973 19.1954 15.5675 19.223 15.5377 19.2414L15.5278 19.2506C15.498 19.2782 15.4583 19.2966 15.4285 19.3242C15.3888 19.3518 15.3591 19.3793 15.3194 19.3977C15.2797 19.4161 15.24 19.4437 15.2102 19.4713C15.1705 19.4989 15.1407 19.5081 15.1109 19.5357L15.0911 19.5449C15.0514 19.5632 15.0216 19.5816 14.9918 19.6092C14.9918 19.6092 14.9819 19.6092 14.9819 19.6184C14.9422 19.6368 14.9124 19.6552 14.8727 19.6828C14.833 19.7012 14.7933 19.7196 14.7536 19.7472C14.7139 19.7655 14.6742 19.7839 14.6345 19.8023L14.5154 19.8575C14.4757 19.8759 14.4361 19.8943 14.3964 19.9127C14.3567 19.9311 14.317 19.9495 14.2773 19.9678C14.1979 20.0046 14.1085 20.0322 14.0291 20.0598C13.9497 20.0874 13.8604 20.115 13.7711 20.1426C13.7413 20.1518 13.7016 20.1609 13.6718 20.1701L13.5527 20.2069C13.4833 20.2253 13.4237 20.2437 13.3542 20.2529C13.3344 20.2621 13.3046 20.2621 13.2749 20.2713L13.2352 20.2805L13.126 20.2989C13.0863 20.3081 13.0664 20.3081 13.0267 20.3173C12.997 20.3265 12.9672 20.3265 12.9374 20.3357C12.9076 20.3357 12.8679 20.3449 12.8382 20.3541C12.8183 20.3541 12.8084 20.3541 12.7885 20.3632L12.7091 20.3724H12.6694C12.6397 20.3724 12.6099 20.3816 12.59 20.3816C12.5603 20.3816 12.5206 20.3908 12.4908 20.3908C12.461 20.3908 12.4412 20.3908 12.4114 20.3908C12.3816 20.3908 12.3618 20.3908 12.3419 20.3908C12.3121 20.3908 12.2824 20.3908 12.2625 20.3908C12.2427 20.3908 12.1831 20.3908 12.1533 20.3908H11.9152C11.8755 20.3908 11.8358 20.3908 11.806 20.3908C11.7762 20.3908 11.7464 20.3908 11.7266 20.3908C11.7067 20.3908 11.677 20.3908 11.6571 20.3908C11.6373 20.3908 11.6075 20.3908 11.5777 20.3908C11.5479 20.3908 11.5082 20.3816 11.4785 20.3816C11.4487 20.3816 11.4189 20.3816 11.3991 20.3724H11.3594C11.3395 20.3724 11.3097 20.3632 11.28 20.3632C11.2601 20.3632 11.2502 20.3632 11.2303 20.3541C11.2006 20.3541 11.1609 20.3449 11.1311 20.3357C11.1013 20.3357 11.0715 20.3265 11.0418 20.3173C11.012 20.3173 10.9723 20.3081 10.9425 20.2989C10.9128 20.2897 10.8731 20.2805 10.8334 20.2805L10.7937 20.2713C10.7639 20.2713 10.7341 20.2621 10.7143 20.2621C10.6448 20.2437 10.5753 20.2253 10.5158 20.2161L10.3967 20.1793C10.357 20.1701 10.3272 20.1609 10.2974 20.1518C10.2081 20.1242 10.1287 20.0966 10.0394 20.069C9.95005 20.0414 9.87065 20.0046 9.79125 19.977C9.75155 19.9586 9.71185 19.9403 9.67215 19.9219L9.55306 19.8667L9.43396 19.8115C9.39426 19.7931 9.35456 19.7747 9.31486 19.7563C9.27516 19.738 9.23546 19.7196 9.19576 19.692C9.15606 19.6736 9.12629 19.6552 9.08659 19.6276L9.07667 19.6184C9.03697 19.6 9.00719 19.5816 8.97742 19.5541L8.95757 19.5449C8.9278 19.5265 8.8881 19.5081 8.85832 19.4805C8.82855 19.4621 8.77892 19.4345 8.74915 19.4069C8.70945 19.3793 8.66975 19.3609 8.63998 19.3334L8.54073 19.2598L8.5308 19.2506C8.50103 19.2322 8.47125 19.2046 8.44148 19.1862L8.42163 19.177C10.2379 20.0138 11.1807 18.9104 11.6472 17.8713C11.8457 17.4207 11.9846 16.9426 12.064 16.4552C12.1434 16.9426 12.2824 17.4115 12.4809 17.8713C12.8878 18.9012 13.8306 20.0046 15.6469 19.1678Z" fill="#529BBA"/>
<path d="M13.3345 20.2529C13.4039 20.2345 13.4734 20.2161 13.533 20.2069C13.4734 20.2161 13.4039 20.2345 13.3345 20.2529Z" fill="#335F8A"/>
<path d="M13.7512 20.1332C13.8405 20.1056 13.9199 20.078 14.0093 20.0504C13.9299 20.0872 13.8405 20.1148 13.7512 20.1332Z" fill="#335F8A"/>
<path d="M14.0093 20.0505C14.0887 20.0229 14.178 19.9861 14.2574 19.9585C14.178 19.9861 14.0986 20.0229 14.0093 20.0505Z" fill="#335F8A"/>
<path d="M17.999 14.5975C17.989 16.3722 17.1256 18.0458 15.6468 19.1676C13.8306 20.0044 12.8877 18.901 12.4212 17.8619C12.2227 17.4113 12.0838 16.9332 12.0044 16.4458L17.8203 13.255C17.9394 13.6964 17.999 14.147 17.999 14.5975Z" fill="#4B6B9A"/>
</svg>
