<svg width="44" height="44" viewBox="0 0 44 44" fill="none" xmlns="http://www.w3.org/2000/svg">
<circle cx="22" cy="22" r="21.75" stroke="white" stroke-opacity="0.56" stroke-width="0.5"/>
<path d="M17.5475 31.7506C26.6042 31.7506 31.5578 24.2473 31.5578 17.7404C31.5578 17.5273 31.5578 17.3151 31.5434 17.1039C32.507 16.4069 33.3389 15.5438 34 14.5551C33.1014 14.9535 32.148 15.2147 31.1718 15.3298C32.1998 14.7145 32.9692 13.7466 33.3366 12.6063C32.3701 13.1799 31.3126 13.5841 30.2099 13.8015C29.4675 13.0121 28.4856 12.4894 27.4162 12.3142C26.3468 12.139 25.2494 12.3212 24.294 12.8326C23.3385 13.3439 22.5782 14.1559 22.1307 15.1429C21.6833 16.1298 21.5735 17.2368 21.8186 18.2924C19.8609 18.1942 17.9458 17.6854 16.1975 16.7991C14.4492 15.9128 12.9068 14.6688 11.6704 13.1478C11.0407 14.2318 10.8479 15.515 11.1311 16.7362C11.4143 17.9574 12.1523 19.0247 13.1949 19.7209C12.4112 19.6979 11.6446 19.4865 10.96 19.1046V19.167C10.9603 20.3038 11.3539 21.4056 12.0739 22.2853C12.7939 23.1651 13.7961 23.7687 14.9104 23.9938C14.1855 24.1916 13.4249 24.2205 12.687 24.0783C13.0018 25.0566 13.6144 25.9122 14.4392 26.5253C15.264 27.1384 16.2598 27.4784 17.2874 27.4978C16.2664 28.3003 15.0973 28.8936 13.8469 29.2438C12.5964 29.594 11.2892 29.6943 10 29.5388C12.2518 30.9838 14.8719 31.7503 17.5475 31.7468" fill="#1DA1F2"/>
</svg>
